<svg width="622" height="39" viewBox="0 0 622 39" fill="none" xmlns="http://www.w3.org/2000/svg">
<path fill-rule="evenodd" clip-rule="evenodd" d="M543.953 38.5C542.153 38.5 540.503 38.0262 539.004 37.0785C537.537 36.0957 536.354 34.8145 535.454 33.235C534.554 31.6204 534.104 29.8479 534.104 27.9174L534.154 11.2273C534.154 9.29684 534.587 7.54184 535.454 5.96234C536.354 4.38284 537.554 3.11925 539.054 2.17155C540.553 1.22385 542.187 0.75 543.953 0.75C545.753 0.75 547.386 1.22385 548.853 2.17155C550.319 3.11925 551.486 4.38284 552.352 5.96234C553.252 7.54184 553.702 9.29684 553.702 11.2273L553.752 27.9174C553.752 29.8479 553.302 31.6204 552.402 33.235C551.536 34.8145 550.352 36.0957 548.853 37.0785C547.386 38.0262 545.753 38.5 543.953 38.5ZM543.953 32.1294C544.953 32.1294 545.82 31.7082 546.553 30.8658C547.319 29.9883 547.703 29.0055 547.703 27.9174L547.653 11.2273C547.653 10.069 547.303 9.08624 546.603 8.27894C545.903 7.47164 545.02 7.06799 543.953 7.06799C542.92 7.06799 542.037 7.47164 541.303 8.27894C540.57 9.05114 540.203 10.0339 540.203 11.2273V27.9174C540.203 29.0757 540.57 30.076 541.303 30.9184C542.037 31.7257 542.92 32.1294 543.953 32.1294ZM76.8037 37.9735C76.637 37.9735 76.5537 37.8857 76.5537 37.7103L76.6537 1.53975C76.6537 1.39935 76.7204 1.32915 76.8537 1.32915L86.2026 1.2765C88.0357 1.2414 89.7022 1.6977 91.202 2.6454C92.7352 3.59309 93.9517 4.87424 94.8516 6.48884C95.7515 8.06834 96.2014 9.82334 96.2014 11.7538V26.8644C96.2014 28.9002 95.7348 30.7605 94.8016 32.4453C93.8684 34.095 92.6185 35.4112 91.052 36.394C89.4855 37.3768 87.7191 37.8858 85.7526 37.9209L76.8037 37.9735ZM82.653 31.4976H85.7526C86.9858 31.4976 88.019 31.0413 88.8523 30.1287C89.7189 29.2161 90.1521 28.128 90.1521 26.8644V11.7012C90.1521 10.578 89.7522 9.61274 88.9523 8.80544C88.1857 7.96304 87.2691 7.55939 86.2026 7.59449L82.703 7.64714L82.653 31.4976ZM0 37.7103C0 37.8857 0.0666656 37.9735 0.199982 37.9735H9.14894C11.0821 37.9735 12.8319 37.4821 14.3983 36.4993C15.9982 35.4814 17.2647 34.1301 18.1979 32.4453C19.1311 30.7605 19.5977 28.9002 19.5977 26.8644C19.5977 25.3902 19.3311 23.9862 18.7978 22.6524C18.2646 21.3186 17.5146 20.1427 16.5481 19.1248C17.448 18.3175 18.2146 17.2645 18.8478 15.9658C19.5144 14.6671 19.8477 13.2631 19.8477 11.7538C19.8477 9.89354 19.4144 8.17364 18.5479 6.59414C17.6813 5.01464 16.4981 3.75105 14.9983 2.80334C13.4984 1.82055 11.7986 1.32915 9.89886 1.32915H0.299973C0.166641 1.32915 0.0999908 1.39935 0.0999908 1.53975L0 37.7103ZM9.89886 15.8605H6.0993V7.59449H9.89886C10.9654 7.59449 11.882 8.01569 12.6485 8.85809C13.4151 9.66539 13.7984 10.6306 13.7984 11.7538C13.7984 12.7717 13.4318 13.7194 12.6985 14.5969C11.9986 15.4393 11.0654 15.8605 9.89886 15.8605ZM9.14894 31.5502H6.0493L6.0993 22.2312H9.14894C10.3488 22.2312 11.382 22.6875 12.2486 23.6001C13.1152 24.5127 13.5484 25.6008 13.5484 26.8644C13.5484 28.128 13.1152 29.2336 12.2486 30.1813C11.382 31.0939 10.3488 31.5502 9.14894 31.5502ZM27.4902 37.0785C28.99 38.0262 30.6232 38.5 32.3896 38.5C34.2228 38.5 35.8726 38.0262 37.3391 37.0785C38.8389 36.1308 40.0221 34.8496 40.8887 33.235C41.7886 31.6204 42.2385 29.8303 42.2385 27.8647L42.1385 1.53975C42.1385 1.39935 42.0719 1.32915 41.9385 1.32915H36.3392C36.2059 1.32915 36.1392 1.39935 36.1392 1.53975V27.8647C36.1392 29.0581 35.7726 30.076 35.0393 30.9184C34.3394 31.7257 33.4562 32.1294 32.3896 32.1294C31.3564 32.1294 30.4732 31.7257 29.7399 30.9184C29.04 30.076 28.6901 29.0581 28.6901 27.8647V1.53975C28.6901 1.39935 28.6234 1.32915 28.4901 1.32915H22.8907C22.7574 1.32915 22.6908 1.39935 22.6908 1.53975L22.5908 27.8647C22.5908 29.7952 23.024 31.5678 23.8906 33.1824C24.7905 34.797 25.9904 36.0957 27.4902 37.0785ZM46.4361 37.9735C46.2694 37.9735 46.1861 37.8857 46.1861 37.7103L46.2361 1.53975C46.2361 1.39935 46.3027 1.32915 46.4361 1.32915H52.0354C52.1687 1.32915 52.2354 1.39935 52.2354 1.53975L52.2854 37.7103C52.2854 37.8857 52.2187 37.9735 52.0854 37.9735H46.4361ZM56.6829 37.7103C56.6829 37.8857 56.7496 37.9735 56.8829 37.9735H73.0311C73.1977 37.9735 73.281 37.8857 73.281 37.7103V31.7608C73.281 31.5853 73.1977 31.4976 73.0311 31.4976H62.7322L62.7822 1.5924C62.7822 1.4169 62.6989 1.32915 62.5323 1.32915H56.9829C56.8163 1.32915 56.7329 1.4169 56.7329 1.5924L56.6829 37.7103ZM107.556 37.7103C107.556 37.8857 107.639 37.9735 107.806 37.9735H113.405C113.572 37.9735 113.655 37.8857 113.655 37.7103V24.4425H117.455C119.221 24.4425 120.854 23.9511 122.354 22.9683C123.854 21.9855 125.071 20.5815 126.004 18.7563C126.937 16.9311 127.404 14.7724 127.404 12.2803C127.404 8.91074 126.504 6.24314 124.704 4.27754C122.938 2.31195 120.521 1.32915 117.455 1.32915H107.856C107.723 1.32915 107.656 1.39935 107.656 1.53975L107.556 37.7103ZM117.455 18.0718H113.655V7.64714L117.455 7.59449C118.688 7.59449 119.655 8.03324 120.355 8.91074C121.054 9.78824 121.404 10.9114 121.404 12.2803C121.404 14.0002 121.004 15.4042 120.205 16.4923C119.438 17.5453 118.521 18.0718 117.455 18.0718ZM130.605 37.9735C130.472 37.9735 130.405 37.8857 130.405 37.7103L130.505 1.53975C130.505 1.39935 130.572 1.32915 130.705 1.32915H140.804C142.604 1.32915 144.253 1.803 145.753 2.75069C147.286 3.6633 148.503 4.90934 149.403 6.48884C150.303 8.03324 150.753 9.78824 150.753 11.7538C150.753 13.0525 150.569 14.2284 150.203 15.2814C149.836 16.2993 149.403 17.1768 148.903 17.9139C148.403 18.6159 147.953 19.1424 147.553 19.4934C149.353 21.5994 150.253 24.0739 150.253 26.917L150.303 37.7103C150.303 37.8857 150.219 37.9735 150.053 37.9735H144.403C144.27 37.9735 144.203 37.9209 144.203 37.8156V26.917C144.203 25.6534 143.77 24.5653 142.904 23.6527C142.07 22.705 141.037 22.2312 139.804 22.2312H136.504L136.454 37.7103C136.454 37.8857 136.388 37.9735 136.254 37.9735H130.605ZM136.504 15.9132H140.804C141.837 15.9132 142.754 15.5095 143.553 14.7022C144.353 13.8949 144.753 12.9121 144.753 11.7538C144.753 10.6306 144.353 9.66539 143.553 8.85809C142.787 8.05079 141.87 7.64714 140.804 7.64714H136.504V15.9132ZM154.523 37.7103C154.523 37.8857 154.607 37.9735 154.773 37.9735H160.423C160.556 37.9735 160.623 37.8857 160.623 37.7103L160.573 1.53975C160.573 1.39935 160.506 1.32915 160.373 1.32915H154.773C154.64 1.32915 154.573 1.39935 154.573 1.53975L154.523 37.7103ZM170.619 37.9735C170.486 37.9735 170.403 37.8857 170.369 37.7103L163.47 1.53975C163.437 1.39935 163.504 1.32915 163.67 1.32915H169.32C169.453 1.32915 169.536 1.39935 169.57 1.53975L173.669 25.6534L177.669 1.53975C177.702 1.39935 177.785 1.32915 177.919 1.32915H183.518C183.685 1.32915 183.751 1.39935 183.718 1.53975L176.919 37.7103C176.885 37.8857 176.802 37.9735 176.669 37.9735H170.619ZM189.049 1.53975L182.849 37.7103C182.849 37.8857 182.916 37.9735 183.049 37.9735H188.599C188.732 37.9735 188.815 37.8857 188.849 37.7103L189.399 33.8668H196.198L196.748 37.7103C196.781 37.8857 196.864 37.9735 196.998 37.9735H202.547C202.714 37.9735 202.78 37.8857 202.747 37.7103L196.798 1.53975C196.764 1.39935 196.681 1.32915 196.548 1.32915H189.299C189.165 1.32915 189.082 1.39935 189.049 1.53975ZM195.198 28.2333H190.398L192.648 13.4386L192.848 11.4906L193.148 13.4386L195.198 28.2333ZM208.492 37.9735C208.358 37.9735 208.292 37.8857 208.292 37.7103V7.69979H201.792C201.626 7.69979 201.542 7.61204 201.542 7.43654L201.592 1.53975C201.592 1.39935 201.659 1.32915 201.792 1.32915H220.79C220.957 1.32915 221.04 1.39935 221.04 1.53975V7.43654C221.04 7.61204 220.974 7.69979 220.84 7.69979H214.291L214.341 37.7103C214.341 37.8857 214.274 37.9735 214.141 37.9735H208.492ZM223.509 37.7103C223.509 37.8857 223.576 37.9735 223.709 37.9735H239.858C239.991 37.9735 240.058 37.9033 240.058 37.7629V31.7608C240.058 31.5853 239.991 31.4976 239.858 31.4976H229.559V22.2838H239.858C239.991 22.2838 240.058 22.2136 240.058 22.0732L240.008 16.1238C240.008 15.9834 239.941 15.9132 239.808 15.9132H229.559V7.69979H239.808C239.941 7.69979 240.008 7.62959 240.008 7.48919V1.5924C240.008 1.4169 239.941 1.32915 239.808 1.32915H223.759C223.626 1.32915 223.559 1.39935 223.559 1.53975L223.509 37.7103ZM252.124 37.9735C251.991 37.9735 251.924 37.8857 251.924 37.7103L251.974 1.53975C251.974 1.39935 252.041 1.32915 252.174 1.32915H268.222C268.356 1.32915 268.422 1.4169 268.422 1.5924V7.48919C268.422 7.62959 268.356 7.69979 268.222 7.69979H257.973V15.9132H268.222C268.356 15.9132 268.422 15.9834 268.422 16.1238L268.472 22.0732C268.472 22.2136 268.406 22.2838 268.272 22.2838H257.973V31.4976H268.272C268.406 31.4976 268.472 31.5853 268.472 31.7608V37.7629C268.472 37.9033 268.406 37.9735 268.272 37.9735H252.124ZM277.717 37.7103C277.717 37.8857 277.784 37.9735 277.917 37.9735H283.567C283.7 37.9735 283.767 37.8857 283.767 37.7103L283.717 7.69979H290.266C290.399 7.69979 290.466 7.61204 290.466 7.43654V1.53975C290.466 1.39935 290.382 1.32915 290.216 1.32915H271.218C271.085 1.32915 271.018 1.39935 271.018 1.53975L270.968 7.43654C270.968 7.61204 271.051 7.69979 271.218 7.69979H277.717V37.7103ZM293.135 37.9735C293.002 37.9735 292.935 37.8857 292.935 37.7103L292.985 1.53975C292.985 1.39935 293.068 1.32915 293.235 1.32915H298.784C298.951 1.32915 299.034 1.39935 299.034 1.53975L298.984 15.8605H306.484V1.53975C306.484 1.39935 306.55 1.32915 306.683 1.32915H312.233C312.399 1.32915 312.483 1.39935 312.483 1.53975L312.583 37.7103C312.583 37.8857 312.499 37.9735 312.333 37.9735H306.733C306.567 37.9735 306.484 37.8857 306.484 37.7103V22.2312H298.984V37.7103C298.984 37.8857 298.918 37.9735 298.784 37.9735H293.135ZM316.663 37.7103C316.663 37.8857 316.729 37.9735 316.863 37.9735H333.011C333.144 37.9735 333.211 37.9033 333.211 37.7629V31.7608C333.211 31.5853 333.144 31.4976 333.011 31.4976H322.712V22.2838H333.011C333.144 22.2838 333.211 22.2136 333.211 22.0732L333.161 16.1238C333.161 15.9834 333.094 15.9132 332.961 15.9132H322.712V7.69979H332.961C333.094 7.69979 333.161 7.62959 333.161 7.48919V1.5924C333.161 1.4169 333.094 1.32915 332.961 1.32915H316.913C316.779 1.32915 316.713 1.39935 316.713 1.53975L316.663 37.7103ZM337.857 37.9735C337.723 37.9735 337.656 37.8857 337.656 37.7103L337.756 1.53975C337.756 1.39935 337.823 1.32915 337.956 1.32915H348.055C349.855 1.32915 351.505 1.803 353.005 2.75069C354.538 3.6633 355.754 4.90934 356.654 6.48884C357.554 8.03324 358.004 9.78824 358.004 11.7538C358.004 13.0525 357.821 14.2284 357.454 15.2814C357.088 16.2993 356.654 17.1768 356.154 17.9139C355.654 18.6159 355.204 19.1424 354.805 19.4934C356.604 21.5994 357.504 24.0739 357.504 26.917L357.554 37.7103C357.554 37.8857 357.471 37.9735 357.304 37.9735H351.655C351.522 37.9735 351.455 37.9209 351.455 37.8156V26.917C351.455 25.6534 351.022 24.5653 350.155 23.6527C349.322 22.705 348.289 22.2312 347.055 22.2312H343.756L343.706 37.7103C343.706 37.8857 343.639 37.9735 343.506 37.9735H337.857ZM343.756 15.9132H348.055C349.089 15.9132 350.005 15.5095 350.805 14.7022C351.605 13.8949 352.005 12.9121 352.005 11.7538C352.005 10.6306 351.605 9.66539 350.805 8.85809C350.038 8.05079 349.122 7.64714 348.055 7.64714H343.756V15.9132ZM361.775 37.7103C361.775 37.8857 361.841 37.9735 361.975 37.9735H378.123C378.256 37.9735 378.323 37.9033 378.323 37.7629V31.7608C378.323 31.5853 378.256 31.4976 378.123 31.4976H367.824V22.2838H378.123C378.256 22.2838 378.323 22.2136 378.323 22.0732L378.273 16.1238C378.273 15.9834 378.206 15.9132 378.073 15.9132H367.824V7.69979H378.073C378.206 7.69979 378.273 7.62959 378.273 7.48919V1.5924C378.273 1.4169 378.206 1.32915 378.073 1.32915H362.025C361.891 1.32915 361.825 1.39935 361.825 1.53975L361.775 37.7103ZM391.967 38.5C390.201 38.5 388.568 38.0262 387.068 37.0785C385.568 36.0957 384.368 34.797 383.468 33.1824C382.602 31.5678 382.169 29.7952 382.169 27.8647L382.269 1.53975C382.269 1.39935 382.335 1.32915 382.469 1.32915H388.068C388.201 1.32915 388.268 1.39935 388.268 1.53975V27.8647C388.268 29.0581 388.618 30.076 389.318 30.9184C390.051 31.7257 390.934 32.1294 391.967 32.1294C393.034 32.1294 393.917 31.7257 394.617 30.9184C395.35 30.076 395.717 29.0581 395.717 27.8647V1.53975C395.717 1.39935 395.784 1.32915 395.917 1.32915H401.516C401.65 1.32915 401.716 1.39935 401.716 1.53975L401.816 27.8647C401.816 29.8303 401.366 31.6204 400.466 33.235C399.6 34.8496 398.417 36.1308 396.917 37.0785C395.45 38.0262 393.801 38.5 391.967 38.5ZM405.764 37.7103C405.764 37.8857 405.831 37.9735 405.964 37.9735H411.613C411.747 37.9735 411.813 37.8857 411.813 37.7103L411.863 10.8588L417.063 18.8616L422.312 10.8588L422.362 37.7103C422.362 37.8857 422.429 37.9735 422.562 37.9735H428.211C428.345 37.9735 428.411 37.8857 428.411 37.7103L428.311 1.53975C428.311 1.39935 428.245 1.32915 428.111 1.32915H421.962C421.829 1.32915 421.712 1.39935 421.612 1.53975L417.063 8.48954L412.513 1.53975C412.413 1.39935 412.296 1.32915 412.163 1.32915H406.064C405.931 1.32915 405.864 1.39935 405.864 1.53975L405.764 37.7103ZM440.487 37.9735C440.221 37.9735 440.087 37.8507 440.087 37.6049L440.037 1.75035C440.037 1.46955 440.171 1.32915 440.437 1.32915H444.937L453.386 22.0732L453.136 1.75035C453.136 1.46955 453.286 1.32915 453.586 1.32915H458.535C458.735 1.32915 458.835 1.46955 458.835 1.75035L458.885 37.6576C458.885 37.8682 458.802 37.9735 458.635 37.9735H454.236L445.587 18.5983L445.937 37.5523C445.937 37.8331 445.787 37.9735 445.487 37.9735H440.487ZM463.228 37.7103C463.228 37.8857 463.295 37.9735 463.428 37.9735H479.576C479.709 37.9735 479.776 37.9033 479.776 37.7629V31.7608C479.776 31.5853 479.709 31.4976 479.576 31.4976H469.277V22.2838H479.576C479.709 22.2838 479.776 22.2136 479.776 22.0732L479.726 16.1238C479.726 15.9834 479.659 15.9132 479.526 15.9132H469.277V7.69979H479.526C479.659 7.69979 479.726 7.62959 479.726 7.48919V1.5924C479.726 1.4169 479.659 1.32915 479.526 1.32915H463.478C463.345 1.32915 463.278 1.39935 463.278 1.53975L463.228 37.7103ZM489.221 37.9735C489.088 37.9735 489.021 37.8857 489.021 37.7103V7.69979H482.522C482.355 7.69979 482.272 7.61204 482.272 7.43654L482.322 1.53975C482.322 1.39935 482.389 1.32915 482.522 1.32915H501.52C501.686 1.32915 501.77 1.39935 501.77 1.53975V7.43654C501.77 7.61204 501.703 7.69979 501.57 7.69979H495.02L495.07 37.7103C495.07 37.8857 495.004 37.9735 494.87 37.9735H489.221ZM508.588 37.7103C508.622 37.8857 508.705 37.9735 508.838 37.9735H514.888C515.021 37.9735 515.104 37.8857 515.138 37.7103L517.687 18.8089L520.237 37.7103C520.304 37.8857 520.387 37.9735 520.487 37.9735H526.536L526.636 37.9209C526.703 37.8507 526.753 37.7804 526.786 37.7103L532.736 1.53975C532.769 1.39935 532.702 1.32915 532.536 1.32915H526.986C526.853 1.32915 526.77 1.39935 526.736 1.53975L523.487 25.3375L520.237 1.53975C520.204 1.39935 520.12 1.32915 519.987 1.32915H515.488C515.321 1.32915 515.221 1.39935 515.188 1.53975L511.888 25.3375L508.688 1.53975C508.655 1.39935 508.572 1.32915 508.438 1.32915H502.839C502.706 1.32915 502.656 1.39935 502.689 1.53975L508.588 37.7103ZM557.553 37.7103C557.553 37.8857 557.62 37.9735 557.753 37.9735H563.402C563.536 37.9735 563.602 37.8857 563.602 37.7103L563.652 22.2312H566.952C568.185 22.2312 569.218 22.705 570.052 23.6527C570.918 24.5653 571.352 25.6534 571.352 26.917V37.8156C571.352 37.9209 571.418 37.9735 571.551 37.9735H577.201C577.367 37.9735 577.451 37.8857 577.451 37.7103L577.401 26.917C577.401 24.0739 576.501 21.5994 574.701 19.4934C575.101 19.1424 575.551 18.6159 576.051 17.9139C576.551 17.1768 576.984 16.2993 577.351 15.2814C577.717 14.2284 577.901 13.0525 577.901 11.7538C577.901 9.78824 577.451 8.03324 576.551 6.48884C575.651 4.90934 574.434 3.6633 572.901 2.75069C571.401 1.803 569.752 1.32915 567.952 1.32915H557.853C557.72 1.32915 557.653 1.39935 557.653 1.53975L557.553 37.7103ZM567.952 15.9132H563.652V7.64714H567.952C569.018 7.64714 569.935 8.05079 570.702 8.85809C571.501 9.66539 571.901 10.6306 571.901 11.7538C571.901 12.9121 571.501 13.8949 570.702 14.7022C569.902 15.5095 568.985 15.9132 567.952 15.9132ZM581.871 37.9735C581.738 37.9735 581.671 37.8857 581.671 37.7103L581.771 1.5924C581.771 1.4169 581.838 1.32915 581.971 1.32915H587.571C587.704 1.32915 587.771 1.4169 587.771 1.5924V14.0704L595.62 1.53975C595.72 1.39935 595.836 1.32915 595.97 1.32915H601.719C601.852 1.32915 601.886 1.39935 601.819 1.53975L593.17 16.0711L602.869 37.7629C602.936 37.9033 602.852 37.9735 602.619 37.9735H596.52C596.353 37.9735 596.253 37.9033 596.22 37.7629L589.47 22.2838L587.721 25.1796V37.7103C587.721 37.8857 587.654 37.9735 587.521 37.9735H581.871ZM606.752 37.0785C608.252 38.0262 609.901 38.5 611.701 38.5C613.501 38.5 615.134 38.0437 616.601 37.1311C618.1 36.1834 619.284 34.9198 620.15 33.3403C621.05 31.7257 621.5 29.9181 621.5 27.9174C621.5 25.8465 621.017 24.109 620.05 22.705C619.084 21.2659 617.767 20.055 616.101 19.0722C616.001 19.002 615.717 18.844 615.251 18.5983C614.817 18.3526 614.318 18.0718 613.751 17.7559C613.184 17.4049 612.651 17.1066 612.151 16.8609C611.685 16.5801 611.368 16.387 611.201 16.2817C609.968 15.5797 609.118 14.8426 608.651 14.0704C608.185 13.2982 607.952 12.333 607.952 11.1747C607.952 10.0515 608.318 9.08624 609.051 8.27894C609.785 7.43654 610.668 7.01534 611.701 7.01534C612.701 7.01534 613.568 7.40144 614.301 8.17364C615.034 8.94584 615.401 9.94619 615.401 11.1747L615.451 15.492C615.451 15.6324 615.517 15.7026 615.651 15.7026H621.25C621.383 15.7026 621.45 15.6324 621.45 15.492V11.1747C621.45 9.24419 621 7.50674 620.1 5.96234C619.234 4.38284 618.05 3.1368 616.551 2.2242C615.084 1.2765 613.468 0.802649 611.701 0.802649C609.968 0.802649 608.352 1.25895 606.852 2.17155C605.385 3.08414 604.202 4.33019 603.302 5.90969C602.402 7.45409 601.952 9.20909 601.952 11.1747C601.952 13.3158 602.386 15.2463 603.252 16.9662C604.152 18.651 605.519 20.055 607.352 21.1782C608.352 21.7749 609.418 22.4067 610.551 23.0736C611.684 23.7405 612.518 24.2319 613.051 24.5478C614.651 25.4955 615.451 26.6187 615.451 27.9174C615.451 29.0406 615.084 30.0234 614.351 30.8658C613.618 31.7082 612.734 32.1294 611.701 32.1294C610.668 32.1294 609.785 31.7257 609.051 30.9184C608.318 30.076 607.952 29.0757 607.952 27.9174V25.4955C607.952 25.32 607.885 25.2322 607.752 25.2322H602.152C601.986 25.2322 601.902 25.32 601.902 25.4955V27.9174C601.902 29.8479 602.336 31.6204 603.202 33.235C604.102 34.8145 605.285 36.0957 606.752 37.0785Z" fill="url(#paint0_linear_9_2)"/>
<defs>
<linearGradient id="paint0_linear_9_2" x1="311.485" y1="31.6496" x2="311.485" y2="5.82237" gradientUnits="userSpaceOnUse">
<stop stop-color="#AAB84E"/>
<stop offset="1" stop-color="#B7C46E"/>
</linearGradient>
</defs>
</svg>
