<svg width="750" height="98" viewBox="0 0 750 98" fill="none" xmlns="http://www.w3.org/2000/svg">
<path fill-rule="evenodd" clip-rule="evenodd" d="M51.0462 79.4594L101.942 88.1549L51.0462 0L0.149923 88.1549L51.0462 79.4594ZM20.3119 73.5374L51.0462 67.0907L81.5556 73.5374L51.0462 21.2141L20.3119 73.5374ZM50.899 82.008L101.798 92.6921L50.899 97.75L0 92.6921L50.899 82.008ZM671.895 67.75C670.096 67.75 668.446 67.2762 666.946 66.3285C665.479 65.3457 664.296 64.0645 663.396 62.485C662.497 60.8704 662.047 59.0979 662.047 57.1674L662.097 40.4773C662.097 38.5468 662.53 36.7918 663.396 35.2123C664.296 33.6328 665.496 32.3692 666.996 31.4215C668.496 30.4739 670.129 30 671.895 30C673.695 30 675.328 30.4739 676.795 31.4215C678.261 32.3692 679.428 33.6328 680.294 35.2123C681.194 36.7918 681.644 38.5468 681.644 40.4773L681.694 57.1674C681.694 59.0979 681.244 60.8704 680.344 62.485C679.478 64.0645 678.295 65.3457 676.795 66.3285C675.328 67.2762 673.695 67.75 671.895 67.75ZM671.895 61.3794C672.895 61.3794 673.762 60.9582 674.495 60.1158C675.262 59.2383 675.645 58.2555 675.645 57.1674L675.595 40.4773C675.595 39.319 675.245 38.3362 674.545 37.5289C673.845 36.7216 672.962 36.318 671.895 36.318C670.862 36.318 669.979 36.7216 669.246 37.5289C668.513 38.3011 668.146 39.2839 668.146 40.4773V57.1674C668.146 58.3257 668.513 59.326 669.246 60.1684C669.979 60.9757 670.862 61.3794 671.895 61.3794ZM204.746 67.2235C204.579 67.2235 204.496 67.1357 204.496 66.9603L204.596 30.7897C204.596 30.6493 204.663 30.5791 204.796 30.5791L214.145 30.5265C215.978 30.4914 217.645 30.9477 219.144 31.8954C220.678 32.8431 221.894 34.1242 222.794 35.7388C223.694 37.3183 224.144 39.0733 224.144 41.0038V56.1144C224.144 58.1502 223.677 60.0105 222.744 61.6953C221.811 63.345 220.561 64.6612 218.994 65.644C217.428 66.6268 215.661 67.1358 213.695 67.1709L204.746 67.2235ZM210.595 60.7476H213.695C214.928 60.7476 215.961 60.2913 216.795 59.3787C217.661 58.4661 218.095 57.378 218.095 56.1144V40.9512C218.095 39.828 217.695 38.8627 216.895 38.0554C216.128 37.213 215.212 36.8094 214.145 36.8445L210.645 36.8971L210.595 60.7476ZM127.942 66.9603C127.942 67.1357 128.009 67.2235 128.142 67.2235H137.091C139.024 67.2235 140.774 66.7321 142.341 65.7493C143.941 64.7314 145.207 63.3801 146.14 61.6953C147.074 60.0105 147.54 58.1502 147.54 56.1144C147.54 54.6402 147.273 53.2362 146.74 51.9024C146.207 50.5686 145.457 49.3927 144.49 48.3748C145.39 47.5675 146.157 46.5145 146.79 45.2158C147.457 43.9171 147.79 42.5131 147.79 41.0038C147.79 39.1435 147.357 37.4236 146.49 35.8441C145.624 34.2646 144.44 33.001 142.941 32.0533C141.441 31.0705 139.741 30.5791 137.841 30.5791H128.242C128.109 30.5791 128.042 30.6493 128.042 30.7897L127.942 66.9603ZM137.841 45.1105H134.042V36.8445H137.841C138.908 36.8445 139.824 37.2657 140.591 38.1081C141.358 38.9154 141.741 39.8806 141.741 41.0038C141.741 42.0217 141.374 42.9694 140.641 43.8469C139.941 44.6893 139.008 45.1105 137.841 45.1105ZM137.091 60.8002H133.992L134.042 51.4812H137.091C138.291 51.4812 139.324 51.9375 140.191 52.8501C141.058 53.7627 141.491 54.8508 141.491 56.1144C141.491 57.378 141.058 58.4836 140.191 59.4313C139.324 60.3439 138.291 60.8002 137.091 60.8002ZM155.433 66.3285C156.932 67.2762 158.566 67.75 160.332 67.75C162.165 67.75 163.815 67.2762 165.281 66.3285C166.781 65.3808 167.964 64.0996 168.831 62.485C169.731 60.8704 170.181 59.0803 170.181 57.1147L170.081 30.7897C170.081 30.6493 170.014 30.5791 169.881 30.5791H164.282C164.148 30.5791 164.082 30.6493 164.082 30.7897V57.1147C164.082 58.3081 163.715 59.326 162.982 60.1684C162.282 60.9757 161.399 61.3794 160.332 61.3794C159.299 61.3794 158.416 60.9757 157.682 60.1684C156.982 59.326 156.632 58.3081 156.632 57.1147V30.7897C156.632 30.6493 156.566 30.5791 156.432 30.5791H150.833C150.7 30.5791 150.633 30.6493 150.633 30.7897L150.533 57.1147C150.533 59.0452 150.966 60.8178 151.833 62.4324C152.733 64.047 153.933 65.3457 155.433 66.3285ZM174.378 67.2235C174.212 67.2235 174.128 67.1357 174.128 66.9603L174.178 30.7897C174.178 30.6493 174.245 30.5791 174.378 30.5791H179.978C180.111 30.5791 180.178 30.6493 180.178 30.7897L180.228 66.9603C180.228 67.1357 180.161 67.2235 180.028 67.2235H174.378ZM184.625 66.9603C184.625 67.1357 184.692 67.2235 184.825 67.2235H200.973C201.14 67.2235 201.223 67.1357 201.223 66.9603V61.0108C201.223 60.8353 201.14 60.7476 200.973 60.7476H190.675L190.725 30.8424C190.725 30.6669 190.641 30.5791 190.475 30.5791H184.925C184.759 30.5791 184.675 30.6669 184.675 30.8424L184.625 66.9603ZM235.498 66.9603C235.498 67.1357 235.582 67.2235 235.748 67.2235H241.348C241.514 67.2235 241.598 67.1357 241.598 66.9603V53.6925H245.397C247.164 53.6925 248.797 53.2011 250.297 52.2183C251.797 51.2355 253.013 49.8315 253.946 48.0063C254.879 46.1811 255.346 44.0224 255.346 41.5303C255.346 38.1607 254.446 35.4931 252.646 33.5275C250.88 31.5619 248.464 30.5791 245.397 30.5791H235.798C235.665 30.5791 235.598 30.6493 235.598 30.7897L235.498 66.9603ZM245.397 47.3218H241.598V36.8971L245.397 36.8445C246.63 36.8445 247.597 37.2832 248.297 38.1607C248.997 39.0382 249.347 40.1614 249.347 41.5303C249.347 43.2502 248.947 44.6542 248.147 45.7423C247.38 46.7953 246.464 47.3218 245.397 47.3218ZM258.547 67.2235C258.414 67.2235 258.347 67.1357 258.347 66.9603L258.447 30.7897C258.447 30.6493 258.514 30.5791 258.647 30.5791H268.746C270.546 30.5791 272.196 31.053 273.696 32.0007C275.229 32.9133 276.445 34.1593 277.345 35.7388C278.245 37.2832 278.695 39.0382 278.695 41.0038C278.695 42.3025 278.512 43.4784 278.145 44.5314C277.778 45.5493 277.345 46.4268 276.845 47.1639C276.345 47.8659 275.895 48.3924 275.495 48.7434C277.295 50.8494 278.195 53.3239 278.195 56.167L278.245 66.9603C278.245 67.1357 278.162 67.2235 277.995 67.2235H272.346C272.212 67.2235 272.146 67.1709 272.146 67.0656V56.167C272.146 54.9034 271.712 53.8153 270.846 52.9027C270.013 51.955 268.979 51.4812 267.746 51.4812H264.447L264.397 66.9603C264.397 67.1357 264.33 67.2235 264.197 67.2235H258.547ZM264.447 45.1632H268.746C269.779 45.1632 270.696 44.7595 271.496 43.9522C272.296 43.1449 272.696 42.1621 272.696 41.0038C272.696 39.8806 272.296 38.9154 271.496 38.1081C270.729 37.3008 269.813 36.8971 268.746 36.8971H264.447V45.1632ZM282.466 66.9603C282.466 67.1357 282.549 67.2235 282.716 67.2235H288.365C288.498 67.2235 288.565 67.1357 288.565 66.9603L288.515 30.7897C288.515 30.6493 288.448 30.5791 288.315 30.5791H282.716C282.582 30.5791 282.516 30.6493 282.516 30.7897L282.466 66.9603ZM298.562 67.2235C298.429 67.2235 298.345 67.1357 298.312 66.9603L291.413 30.7897C291.379 30.6493 291.446 30.5791 291.613 30.5791H297.262C297.395 30.5791 297.479 30.6493 297.512 30.7897L301.611 54.9034L305.611 30.7897C305.644 30.6493 305.728 30.5791 305.861 30.5791H311.46C311.627 30.5791 311.694 30.6493 311.66 30.7897L304.861 66.9603C304.828 67.1357 304.744 67.2235 304.611 67.2235H298.562ZM316.991 30.7897L310.792 66.9603C310.792 67.1357 310.858 67.2235 310.992 67.2235H316.541C316.674 67.2235 316.758 67.1357 316.791 66.9603L317.341 63.1168H324.14L324.69 66.9603C324.723 67.1357 324.807 67.2235 324.94 67.2235H330.489C330.656 67.2235 330.723 67.1357 330.689 66.9603L324.74 30.7897C324.707 30.6493 324.623 30.5791 324.49 30.5791H317.241C317.108 30.5791 317.024 30.6493 316.991 30.7897ZM323.14 57.4833H318.341L320.591 42.6886L320.791 40.7406L321.09 42.6886L323.14 57.4833ZM336.434 67.2235C336.301 67.2235 336.234 67.1357 336.234 66.9603V36.9498H329.735C329.568 36.9498 329.485 36.862 329.485 36.6865L329.535 30.7897C329.535 30.6493 329.602 30.5791 329.735 30.5791H348.733C348.899 30.5791 348.983 30.6493 348.983 30.7897V36.6865C348.983 36.862 348.916 36.9498 348.783 36.9498H342.233L342.283 66.9603C342.283 67.1357 342.217 67.2235 342.083 67.2235H336.434ZM351.452 66.9603C351.452 67.1357 351.518 67.2235 351.652 67.2235H367.8C367.933 67.2235 368 67.1533 368 67.0129V61.0108C368 60.8353 367.933 60.7476 367.8 60.7476H357.501V51.5338H367.8C367.933 51.5338 368 51.4636 368 51.3232L367.95 45.3738C367.95 45.2334 367.883 45.1632 367.75 45.1632H357.501V36.9498H367.75C367.883 36.9498 367.95 36.8796 367.95 36.7392V30.8424C367.95 30.6669 367.883 30.5791 367.75 30.5791H351.702C351.568 30.5791 351.502 30.6493 351.502 30.7897L351.452 66.9603ZM380.066 67.2235C379.933 67.2235 379.867 67.1357 379.867 66.9603L379.917 30.7897C379.917 30.6493 379.983 30.5791 380.117 30.5791H396.165C396.298 30.5791 396.365 30.6669 396.365 30.8424V36.7392C396.365 36.8796 396.298 36.9498 396.165 36.9498H385.916V45.1632H396.165C396.298 45.1632 396.365 45.2334 396.365 45.3738L396.415 51.3232C396.415 51.4636 396.348 51.5338 396.215 51.5338H385.916V60.7476H396.215C396.348 60.7476 396.415 60.8353 396.415 61.0108V67.0129C396.415 67.1533 396.348 67.2235 396.215 67.2235H380.066ZM405.66 66.9603C405.66 67.1357 405.726 67.2235 405.86 67.2235H411.509C411.642 67.2235 411.709 67.1357 411.709 66.9603L411.659 36.9498H418.208C418.342 36.9498 418.408 36.862 418.408 36.6865V30.7897C418.408 30.6493 418.325 30.5791 418.158 30.5791H399.16C399.027 30.5791 398.96 30.6493 398.96 30.7897L398.91 36.6865C398.91 36.862 398.994 36.9498 399.16 36.9498H405.66V66.9603ZM421.077 67.2235C420.944 67.2235 420.877 67.1357 420.877 66.9603L420.927 30.7897C420.927 30.6493 421.011 30.5791 421.177 30.5791H426.727C426.893 30.5791 426.977 30.6493 426.977 30.7897L426.927 45.1105H434.426V30.7897C434.426 30.6493 434.493 30.5791 434.626 30.5791H440.175C440.342 30.5791 440.425 30.6493 440.425 30.7897L440.525 66.9603C440.525 67.1357 440.442 67.2235 440.275 67.2235H434.676C434.509 67.2235 434.426 67.1357 434.426 66.9603V51.4812H426.927V66.9603C426.927 67.1357 426.86 67.2235 426.727 67.2235H421.077ZM444.605 66.9603C444.605 67.1357 444.672 67.2235 444.805 67.2235H460.953C461.087 67.2235 461.153 67.1533 461.153 67.0129V61.0108C461.153 60.8353 461.087 60.7476 460.953 60.7476H450.654V51.5338H460.953C461.087 51.5338 461.153 51.4636 461.153 51.3232L461.103 45.3738C461.103 45.2334 461.037 45.1632 460.903 45.1632H450.654V36.9498H460.903C461.037 36.9498 461.103 36.8796 461.103 36.7392V30.8424C461.103 30.6669 461.037 30.5791 460.903 30.5791H444.855C444.722 30.5791 444.655 30.6493 444.655 30.7897L444.605 66.9603ZM465.799 67.2235C465.666 67.2235 465.599 67.1357 465.599 66.9603L465.699 30.7897C465.699 30.6493 465.766 30.5791 465.899 30.5791H475.998C477.797 30.5791 479.447 31.053 480.947 32.0007C482.48 32.9133 483.697 34.1593 484.597 35.7388C485.497 37.2832 485.947 39.0382 485.947 41.0038C485.947 42.3025 485.763 43.4784 485.397 44.5314C485.03 45.5493 484.597 46.4268 484.097 47.1639C483.597 47.8659 483.147 48.3924 482.747 48.7434C484.547 50.8494 485.447 53.3239 485.447 56.167L485.497 66.9603C485.497 67.1357 485.413 67.2235 485.247 67.2235H479.597C479.464 67.2235 479.397 67.1709 479.397 67.0656V56.167C479.397 54.9034 478.964 53.8153 478.097 52.9027C477.264 51.955 476.231 51.4812 474.998 51.4812H471.698L471.648 66.9603C471.648 67.1357 471.582 67.2235 471.448 67.2235H465.799ZM471.698 45.1632H475.998C477.031 45.1632 477.947 44.7595 478.747 43.9522C479.547 43.1449 479.947 42.1621 479.947 41.0038C479.947 39.8806 479.547 38.9154 478.747 38.1081C477.981 37.3008 477.064 36.8971 475.998 36.8971H471.698V45.1632ZM489.717 66.9603C489.717 67.1357 489.784 67.2235 489.917 67.2235H506.065C506.199 67.2235 506.265 67.1533 506.265 67.0129V61.0108C506.265 60.8353 506.199 60.7476 506.065 60.7476H495.766V51.5338H506.065C506.199 51.5338 506.265 51.4636 506.265 51.3232L506.215 45.3738C506.215 45.2334 506.149 45.1632 506.015 45.1632H495.766V36.9498H506.015C506.149 36.9498 506.215 36.8796 506.215 36.7392V30.8424C506.215 30.6669 506.149 30.5791 506.015 30.5791H489.967C489.834 30.5791 489.767 30.6493 489.767 30.7897L489.717 66.9603ZM519.91 67.75C518.143 67.75 516.51 67.2762 515.01 66.3285C513.511 65.3457 512.311 64.047 511.411 62.4324C510.544 60.8178 510.111 59.0452 510.111 57.1147L510.211 30.7897C510.211 30.6493 510.278 30.5791 510.411 30.5791H516.01C516.144 30.5791 516.21 30.6493 516.21 30.7897V57.1147C516.21 58.3081 516.56 59.326 517.26 60.1684C517.993 60.9757 518.877 61.3794 519.91 61.3794C520.976 61.3794 521.86 60.9757 522.56 60.1684C523.293 59.326 523.659 58.3081 523.659 57.1147V30.7897C523.659 30.6493 523.726 30.5791 523.859 30.5791H529.459C529.592 30.5791 529.659 30.6493 529.659 30.7897L529.759 57.1147C529.759 59.0803 529.309 60.8704 528.409 62.485C527.542 64.0996 526.359 65.3808 524.859 66.3285C523.393 67.2762 521.743 67.75 519.91 67.75ZM533.706 66.9603C533.706 67.1357 533.773 67.2235 533.906 67.2235H539.556C539.689 67.2235 539.756 67.1357 539.756 66.9603L539.806 40.1088L545.005 48.1116L550.254 40.1088L550.304 66.9603C550.304 67.1357 550.371 67.2235 550.504 67.2235H556.154C556.287 67.2235 556.354 67.1357 556.354 66.9603L556.254 30.7897C556.254 30.6493 556.187 30.5791 556.054 30.5791H549.904C549.771 30.5791 549.654 30.6493 549.554 30.7897L545.005 37.7395L540.456 30.7897C540.356 30.6493 540.239 30.5791 540.106 30.5791H534.006C533.873 30.5791 533.806 30.6493 533.806 30.7897L533.706 66.9603ZM568.43 67.2235C568.163 67.2235 568.03 67.1007 568.03 66.8549L567.98 31.0003C567.98 30.7195 568.113 30.5791 568.38 30.5791H572.879L581.328 51.3232L581.078 31.0003C581.078 30.7195 581.228 30.5791 581.528 30.5791H586.478C586.678 30.5791 586.778 30.7195 586.778 31.0003L586.828 66.9076C586.828 67.1182 586.744 67.2235 586.578 67.2235H582.178L573.529 47.8483L573.879 66.8023C573.879 67.0831 573.729 67.2235 573.429 67.2235H568.43ZM591.17 66.9603C591.17 67.1357 591.237 67.2235 591.37 67.2235H607.518C607.652 67.2235 607.718 67.1533 607.718 67.0129V61.0108C607.718 60.8353 607.652 60.7476 607.518 60.7476H597.22V51.5338H607.518C607.652 51.5338 607.718 51.4636 607.718 51.3232L607.668 45.3738C607.668 45.2334 607.602 45.1632 607.469 45.1632H597.22V36.9498H607.469C607.602 36.9498 607.668 36.8796 607.668 36.7392V30.8424C607.668 30.6669 607.602 30.5791 607.469 30.5791H591.42C591.287 30.5791 591.22 30.6493 591.22 30.7897L591.17 66.9603ZM617.163 67.2235C617.03 67.2235 616.964 67.1357 616.964 66.9603V36.9498H610.464C610.298 36.9498 610.214 36.862 610.214 36.6865L610.264 30.7897C610.264 30.6493 610.331 30.5791 610.464 30.5791H629.462C629.629 30.5791 629.712 30.6493 629.712 30.7897V36.6865C629.712 36.862 629.645 36.9498 629.512 36.9498H622.963L623.013 66.9603C623.013 67.1357 622.946 67.2235 622.813 67.2235H617.163ZM636.531 66.9603C636.564 67.1357 636.647 67.2235 636.781 67.2235H642.83C642.963 67.2235 643.047 67.1357 643.08 66.9603L645.63 48.0589L648.179 66.9603C648.246 67.1357 648.329 67.2235 648.429 67.2235H654.479L654.579 67.1709C654.645 67.1007 654.695 67.0304 654.729 66.9603L660.678 30.7897C660.711 30.6493 660.645 30.5791 660.478 30.5791H654.929C654.795 30.5791 654.712 30.6493 654.679 30.7897L651.429 54.5875L648.179 30.7897C648.146 30.6493 648.063 30.5791 647.929 30.5791H643.43C643.263 30.5791 643.163 30.6493 643.13 30.7897L639.83 54.5875L636.631 30.7897C636.597 30.6493 636.514 30.5791 636.381 30.5791H630.781C630.648 30.5791 630.598 30.6493 630.631 30.7897L636.531 66.9603ZM685.495 66.9603C685.495 67.1357 685.562 67.2235 685.695 67.2235H691.345C691.478 67.2235 691.545 67.1357 691.545 66.9603L691.595 51.4812H694.894C696.128 51.4812 697.161 51.955 697.994 52.9027C698.861 53.8153 699.294 54.9034 699.294 56.167V67.0656C699.294 67.1709 699.361 67.2235 699.494 67.2235H705.143C705.31 67.2235 705.393 67.1357 705.393 66.9603L705.343 56.167C705.343 53.3239 704.443 50.8494 702.643 48.7434C703.043 48.3924 703.493 47.8659 703.993 47.1639C704.493 46.4268 704.927 45.5493 705.293 44.5314C705.66 43.4784 705.843 42.3025 705.843 41.0038C705.843 39.0382 705.393 37.2832 704.493 35.7388C703.593 34.1593 702.377 32.9133 700.844 32.0007C699.344 31.053 697.694 30.5791 695.894 30.5791H685.795C685.662 30.5791 685.595 30.6493 685.595 30.7897L685.495 66.9603ZM695.894 45.1632H691.595V36.8971H695.894C696.961 36.8971 697.877 37.3008 698.644 38.1081C699.444 38.9154 699.844 39.8806 699.844 41.0038C699.844 42.1621 699.444 43.1449 698.644 43.9522C697.844 44.7595 696.927 45.1632 695.894 45.1632ZM709.814 67.2235C709.68 67.2235 709.614 67.1357 709.614 66.9603L709.714 30.8424C709.714 30.6669 709.78 30.5791 709.914 30.5791H715.513C715.646 30.5791 715.713 30.6669 715.713 30.8424V43.3204L723.562 30.7897C723.662 30.6493 723.779 30.5791 723.912 30.5791H729.661C729.795 30.5791 729.828 30.6493 729.761 30.7897L721.112 45.3211L730.811 67.0129C730.878 67.1533 730.795 67.2235 730.561 67.2235H724.462C724.295 67.2235 724.195 67.1533 724.162 67.0129L717.413 51.5338L715.663 54.4296V66.9603C715.663 67.1357 715.596 67.2235 715.463 67.2235H709.814ZM734.694 66.3285C736.194 67.2762 737.844 67.75 739.644 67.75C741.443 67.75 743.076 67.2937 744.543 66.3811C746.043 65.4334 747.226 64.1698 748.093 62.5903C748.992 60.9757 749.442 59.1681 749.442 57.1674C749.442 55.0965 748.959 53.359 747.993 51.955C747.026 50.5159 745.71 49.305 744.043 48.3222C743.943 48.252 743.66 48.094 743.193 47.8483C742.76 47.6026 742.26 47.3218 741.693 47.0059C741.127 46.6549 740.593 46.3566 740.094 46.1109C739.627 45.8301 739.31 45.637 739.144 45.5317C737.91 44.8297 737.06 44.0926 736.594 43.3204C736.127 42.5482 735.894 41.583 735.894 40.4247C735.894 39.3015 736.261 38.3362 736.994 37.5289C737.727 36.6865 738.61 36.2653 739.644 36.2653C740.643 36.2653 741.51 36.6514 742.243 37.4236C742.976 38.1958 743.343 39.1962 743.343 40.4247L743.393 44.742C743.393 44.8824 743.46 44.9526 743.593 44.9526H749.192C749.326 44.9526 749.392 44.8824 749.392 44.742V40.4247C749.392 38.4942 748.943 36.7567 748.043 35.2123C747.176 33.6328 745.993 32.3868 744.493 31.4742C743.026 30.5265 741.41 30.0526 739.644 30.0526C737.91 30.0526 736.294 30.5089 734.794 31.4215C733.328 32.3341 732.144 33.5802 731.244 35.1597C730.345 36.7041 729.895 38.4591 729.895 40.4247C729.895 42.5658 730.328 44.4963 731.194 46.2162C732.094 47.901 733.461 49.305 735.294 50.4282C736.294 51.0249 737.36 51.6567 738.494 52.3236C739.627 52.9905 740.46 53.4819 740.993 53.7978C742.593 54.7455 743.393 55.8687 743.393 57.1674C743.393 58.2906 743.026 59.2734 742.293 60.1158C741.56 60.9582 740.677 61.3794 739.644 61.3794C738.61 61.3794 737.727 60.9757 736.994 60.1684C736.261 59.326 735.894 58.3257 735.894 57.1674V54.7455C735.894 54.57 735.827 54.4822 735.694 54.4822H730.095C729.928 54.4822 729.845 54.57 729.845 54.7455V57.1674C729.845 59.0979 730.278 60.8704 731.145 62.485C732.044 64.0645 733.228 65.3457 734.694 66.3285Z" fill="url(#paint0_linear_8_16)"/>
<defs>
<linearGradient id="paint0_linear_8_16" x1="375.607" y1="80.0116" x2="375.607" y2="13.1344" gradientUnits="userSpaceOnUse">
<stop stop-color="#AAB84E"/>
<stop offset="1" stop-color="#B7C46E"/>
</linearGradient>
</defs>
</svg>
